<?xml version="1.0" encoding="UTF-8"?>
<!DOCTYPE svg  PUBLIC '-//W3C//DTD SVG 1.1//EN'  'http://www.w3.org/Graphics/SVG/1.1/DTD/svg11.dtd'>
<svg enable-background="new 0 0 45.6 26.3" version="1.1" viewBox="0 0 45.6 26.3" xml:space="preserve" xmlns="http://www.w3.org/2000/svg" xmlns:xlink="http://www.w3.org/1999/xlink">
<symbol id="a" viewBox="0 -22.05 39.413 22.06">
	<g clip-rule="evenodd" fill-rule="evenodd">
		<path d="m38.85-19.8v0.25c0 0.167-0.017 0.35-0.05 0.55-0.067 0.2-0.083 0.467-0.05 0.8-0.2 0-0.417 0.167-0.65 0.5-0.267 0.333-0.45 0.566-0.55 0.7-0.067 0.067-0.283 0.167-0.65 0.3-0.367 0.1-0.633 0.167-0.8 0.2-0.233 0.034-0.517 0-0.85-0.1s-0.534-0.133-0.6-0.1c-0.867 0.133-1.7 0.483-2.5 1.05-1.033 0.7-1.533 1.45-1.5 2.25 0 0.1 0.033 0.25 0.1 0.45 0.066 0.2 0.1 0.35 0.1 0.45 0 0.267-0.083 0.45-0.25 0.55-0.233 0.133-0.4 0.333-0.5 0.6-0.033 0.1-0.05 0.316-0.05 0.65-0.033 0.333-0.067 0.533-0.1 0.6-0.1 0.3-0.267 0.55-0.5 0.75l-0.2 0.2c-0.03 0.03-0.239 0.155-0.625 0.375 0.127-0.067 0.252-0.126 0.375-0.175 0.167-0.1 0.316-0.2 0.45-0.3 0.2-0.167 0.383-0.333 0.55-0.5s0.3-0.35 0.4-0.55 0.167-0.4 0.2-0.6c0.067-0.2 0.117-0.417 0.15-0.65 0.033-0.133 0.133-0.267 0.3-0.4 0.267-0.167 0.35-0.383 0.25-0.65-0.067-0.2-0.1-0.4-0.1-0.6-0.033-0.133-0.033-0.267 0-0.4 0.1-0.5 0.35-0.917 0.75-1.25 0.667-0.534 1.383-0.917 2.15-1.15 0.733-0.233 1.45-0.267 2.15-0.1 0.133 0.066 0.283 0.1 0.45 0.1 0.934-0.133 1.7-0.667 2.3-1.6 0.066-0.133 0.15-0.267 0.25-0.4 0.2-0.3 0.216-0.633 0.05-1v-0.05c-0.133-0.3-0.283-0.55-0.45-0.75zm-31.15 19c-0.167 0.067-0.333 0.15-0.5 0.25-0.469 0.25-0.836 0.384-1.1 0.4 0.3 0.1 0.6 0.15 0.9 0.15 0.2 0.034 0.4-0.017 0.6-0.15 0.1-0.066 0.216-0.15 0.35-0.25 0.2-0.167 0.434-0.35 0.7-0.55 0.167-0.133 0.333-0.283 0.5-0.45 0.433-0.433 0.933-0.833 1.5-1.2 0.433-0.267 0.867-0.5 1.3-0.7 0.667-0.333 1.333-0.6 2-0.8 0.1 0 0.2-0.017 0.3-0.05 0.633-0.066 1.267-0.233 1.9-0.5 0.5-0.2 0.967-0.316 1.4-0.35 0.233 0 0.45 0.017 0.65 0.05 0.133 0.033 0.283 0.017 0.45-0.05 0.467-0.167 0.933-0.367 1.4-0.6-0.3 0-0.55 0.083-0.75 0.25-0.233 0.167-0.4 0.25-0.5 0.25-0.167 0.033-0.333-0.017-0.5-0.15s-0.3-0.2-0.4-0.2c-0.333 0.033-0.8 0.15-1.4 0.35-0.833 0.267-1.333 0.417-1.5 0.45-0.6 0.133-1.067 0.25-1.4 0.35-0.6 0.133-1.134 0.35-1.6 0.65-0.2 0.1-0.417 0.2-0.65 0.3-0.267 0.1-0.466 0.167-0.6 0.2-0.467 0.2-0.917 0.517-1.35 0.95-0.467 0.467-0.8 0.783-1 0.95-0.233 0.2-0.467 0.35-0.7 0.45z" fill="#98281C"/>
		<path d="m30.6-20.15c-0.066 0.033-0.133 0.067-0.2 0.1-0.133 0.067-0.233 0.117-0.3 0.15-0.066 0-0.167 0.017-0.3 0.05h-0.3c-0.133 0.033-0.367 0.15-0.7 0.35 0.367-0.1 0.767-0.117 1.2-0.05 0.133 0 0.25 0.017 0.35 0.05 0.333 0.133 0.517 0.367 0.55 0.7 0 0.333-0.15 0.667-0.45 1-0.1 0.133-0.2 0.25-0.3 0.35 0.6-0.467 1.283-0.783 2.05-0.95 0.133-0.033 0.383-0.033 0.75 0 0.333 0.033 0.583 0.033 0.75 0 0.067 0 0.133-0.017 0.2-0.05-0.167 0.2-0.333 0.316-0.5 0.35-0.934 0.2-1.65 0.517-2.15 0.95-0.333 0.233-0.65 0.65-0.95 1.25-0.133 0.2-0.25 0.383-0.35 0.55-0.167 0.3-0.316 0.517-0.45 0.65-0.1 0.1-0.267 0.217-0.5 0.35-0.267 0.133-0.467 0.233-0.6 0.3-0.467 0.233-0.7 0.517-0.7 0.85 0 0.633-0.15 1.083-0.45 1.35-0.167 0.1-0.267 0.183-0.3 0.25-0.1 0.1-0.15 0.216-0.15 0.35 0 0.233 0.133 0.5 0.4 0.8 0.233 0.267 0.35 0.45 0.35 0.55 0 0.2-0.15 0.434-0.45 0.7-0.367 0.3-0.566 0.467-0.6 0.5-0.133 0.267-0.333 0.483-0.6 0.65-0.3 0.2-0.617 0.3-0.95 0.3-0.2 0.034-0.367 0.034-0.5 0-0.133-0.033-0.283-0.033-0.45 0-0.1 0-0.217 0.034-0.35 0.1-0.167 0.067-0.3 0.133-0.4 0.2-0.467 0.167-0.967 0.267-1.5 0.3-0.167 0.033-0.434 0.033-0.8 0h-0.8c-0.367 0-0.7 0.067-1 0.2-0.133 0.066-0.317 0.2-0.55 0.4-0.233 0.167-0.433 0.3-0.6 0.4-0.233 0.1-0.55 0.15-0.95 0.15-0.6-0.033-0.95-0.066-1.05-0.1-0.267 0-0.667 0.066-1.2 0.2s-0.833 0.2-0.9 0.2c-0.7-0.133-1.083-0.2-1.15-0.2s-0.333 0.117-0.8 0.35c-0.566 0.233-0.867 0.367-0.9 0.4-0.433 0.133-0.75 0.3-0.95 0.5-0.233 0.267-0.483 0.5-0.75 0.7-0.167 0.133-0.333 0.233-0.5 0.3-0.2 0.033-0.35 0.067-0.45 0.1-0.167 0.067-0.3 0.183-0.4 0.35-0.133 0.234-0.233 0.384-0.3 0.45-0.134 0.133-0.367 0.25-0.7 0.35-0.267 0.133-0.583 0.217-0.95 0.25h-1c0.034 1e-3 0.068 0.018 0.1 0.05-0.067 0-0.133 0.017-0.2 0.05l0.05 0.05c-0.233 0-0.5 0.05-0.8 0.15-0.433 0.133-0.767 0.2-1 0.2-0.066-0.033-0.183-0.066-0.35-0.1l-0.3-0.1c-0.1 0-0.183 0.033-0.25 0.1-0.1 0.034-0.15 0.083-0.15 0.15-0.033 0.066-0.033 0.133 0 0.2 0.433 0.133 0.9 0.233 1.4 0.3 0.533 0 1 0.133 1.4 0.4 0.3 0.2 0.617 0.367 0.95 0.5 0.066-0.033 0.133-0.067 0.2-0.1 0-0.033 0.1-0.117 0.3-0.25 0.166-0.166 0.3-0.25 0.4-0.25 0.067-0.033 0.233-0.083 0.5-0.15 0.233-0.067 0.367-0.167 0.4-0.3v-0.35c0-0.233 0.017-0.383 0.05-0.45 0.1-0.167 0.316-0.367 0.65-0.6 0.3-0.2 0.5-0.3 0.6-0.3 0.233-0.033 0.483-0.167 0.75-0.4 0.133-0.133 0.333-0.35 0.6-0.65 0.434-0.5 0.867-0.867 1.3-1.1 0.467-0.233 0.95-0.317 1.45-0.25 0.633 0.033 1.167 0.066 1.6 0.1 0.533 0.034 0.983 0.067 1.35 0.1v0.05c-0.233 0.066-0.567 0.1-1 0.1-0.467-0.033-0.833-0.05-1.1-0.05-0.9-0.033-1.566 0.1-2 0.4-0.3 0.2-0.6 0.467-0.9 0.8s-0.6 0.583-0.9 0.75c-0.467 0.2-0.817 0.367-1.05 0.5-0.4 0.233-0.667 0.483-0.8 0.75 0 0.033-0.017 0.117-0.05 0.25 0 0.1-0.017 0.183-0.05 0.25-0.067 0.167-0.234 0.35-0.5 0.55 0.233-0.1 0.467-0.25 0.7-0.45 0.2-0.167 0.533-0.483 1-0.95 0.433-0.434 0.883-0.75 1.35-0.95 0.133-0.033 0.333-0.1 0.6-0.2 0.233-0.1 0.45-0.2 0.65-0.3 0.466-0.3 1-0.517 1.6-0.65 0.333-0.1 0.8-0.217 1.4-0.35 0.167-0.033 0.667-0.183 1.5-0.45 0.6-0.2 1.066-0.317 1.4-0.35 0.1 0 0.233 0.066 0.4 0.2s0.333 0.184 0.5 0.15c0.1 0 0.267-0.083 0.5-0.25 0.2-0.167 0.45-0.25 0.75-0.25h0.15c0.133-0.1 0.283-0.167 0.45-0.2 0.233-0.067 0.433-0.067 0.6 0 0.1 0.033 0.216 0.05 0.35 0.05 0.1 0.034 0.233 0 0.4-0.1 0.233-0.2 0.483-0.367 0.75-0.5h0.05c0.167 0 0.317 0.033 0.45 0.1 0.233-0.167 0.5-0.316 0.8-0.45 0.367-0.167 0.733-0.267 1.1-0.3 0.233-0.033 0.433-0.05 0.6-0.05h0.45c0.633-0.067 1.2-0.3 1.7-0.7 0.1-0.066 0.166-0.15 0.2-0.25 0.034-0.2 0.034-0.367 0-0.5 0.133-0.066 0.267-0.133 0.4-0.2 0.046-0.026 0.088-0.052 0.125-0.075 0.386-0.22 0.595-0.345 0.625-0.375l0.2-0.2c0.233-0.2 0.4-0.45 0.5-0.75 0.033-0.067 0.067-0.267 0.1-0.6 0-0.333 0.017-0.55 0.05-0.65 0.1-0.267 0.267-0.467 0.5-0.6 0.167-0.1 0.25-0.283 0.25-0.55 0-0.1-0.033-0.25-0.1-0.45s-0.1-0.35-0.1-0.45c-0.033-0.8 0.467-1.55 1.5-2.25 0.8-0.566 1.633-0.917 2.5-1.05 0.066-0.033 0.267 0 0.6 0.1s0.617 0.133 0.85 0.1c0.167-0.033 0.434-0.1 0.8-0.2 0.367-0.133 0.583-0.233 0.65-0.3 0.1-0.133 0.283-0.367 0.55-0.7 0.233-0.333 0.45-0.5 0.65-0.5-0.034-0.333-0.017-0.6 0.05-0.8 0.033-0.2 0.05-0.383 0.05-0.55v-0.25c-0.133-0.1-0.267-0.183-0.4-0.25-0.1-0.067-0.2-0.117-0.3-0.15-0.8-0.4-1.667-0.65-2.6-0.75h-0.3c-0.133-0.033-0.284-0.05-0.45-0.05-1.033-0.066-2-0.233-2.9-0.5 0.167 0.133 0.25 0.3 0.25 0.5 0 0.167-0.083 0.333-0.25 0.5-0.4 0.233-0.667 0.35-0.8 0.35h-0.5zm5.75 2.9l0.3-0.2c0.167-0.1 0.283-0.15 0.35-0.15l0.15 0.15c0.1 0.066 0.183 0.1 0.25 0.1-0.567 0.433-0.9 0.667-1 0.7-0.1 0-0.417-0.083-0.95-0.25-0.566-0.167-0.95-0.233-1.15-0.2-0.367 0.066-0.767 0.216-1.2 0.45-0.533 0.267-0.95 0.467-1.25 0.6-0.133 0.067-0.267 0.15-0.4 0.25-0.3 0.333-0.583 0.7-0.85 1.1l-0.2 0.2c-0.1 0.133-0.15 0.267-0.15 0.4-0.067 0.167-0.117 0.483-0.15 0.95-0.033 0.4-0.167 0.667-0.4 0.8h-0.05c-0.367 0.133-0.667 0.267-0.9 0.4-0.4 0.2-0.6 0.4-0.6 0.6 0 0.167 0.183 0.367 0.55 0.6 0.4 0.233 0.6 0.45 0.6 0.65 0 0.233-0.3 0.55-0.9 0.95-0.333 0.2-0.567 0.333-0.7 0.4-0.267 0.133-0.433 0.233-0.5 0.3 0.033 0.033 0.083 0.1 0.15 0.2 0.067 0.067 0.1 0.117 0.1 0.15s-0.017 0.066-0.05 0.1c-0.033 0-0.067 0.017-0.1 0.05-0.033 0-0.083 0.017-0.15 0.05-0.033 0-0.1-0.033-0.2-0.1-0.1-0.066-0.15-0.117-0.15-0.15 0.067-0.2 0.317-0.45 0.75-0.75 0.4-0.3 0.6-0.517 0.6-0.65 0-0.233-0.15-0.467-0.45-0.7s-0.45-0.45-0.45-0.65c0-0.167 0.15-0.383 0.45-0.65 0.2-0.2 0.4-0.333 0.6-0.4l0.3-0.3c0.2-0.267 0.35-0.533 0.45-0.8 0.1-0.433 0.333-0.75 0.7-0.95 0.033-0.066 0.066-0.117 0.1-0.15h0.05c0-0.066 0.017-0.15 0.05-0.25 0.067-0.066 0.217-0.316 0.45-0.75 0.1-0.267 0.233-0.467 0.4-0.6 0.1-0.1 0.317-0.267 0.65-0.5s0.533-0.383 0.6-0.45c0.067-0.1 0.3-0.233 0.7-0.4 0.167-0.034 0.3-0.083 0.4-0.15 0.5-0.3 1.017-0.466 1.55-0.5 0.467-0.1 0.817-0.033 1.05 0.2l0.25 0.2c0.1 0.067 0.216 0.1 0.35 0.1z" fill="#D41914"/>
		<path d="m36.35-17.25c-0.133 0-0.25-0.033-0.35-0.1l-0.25-0.2c-0.233-0.233-0.583-0.3-1.05-0.2-0.533 0.034-1.05 0.2-1.55 0.5-0.1 0.067-0.233 0.117-0.4 0.15-0.4 0.167-0.633 0.3-0.7 0.4-0.067 0.066-0.267 0.217-0.6 0.45s-0.55 0.4-0.65 0.5c-0.167 0.133-0.3 0.333-0.4 0.6-0.233 0.434-0.383 0.684-0.45 0.75-0.033 0.1-0.05 0.184-0.05 0.25h-0.05c-0.033 0.033-0.066 0.083-0.1 0.15-0.367 0.2-0.6 0.517-0.7 0.95-0.1 0.267-0.25 0.533-0.45 0.8l-0.3 0.3c-0.2 0.066-0.4 0.2-0.6 0.4-0.3 0.267-0.45 0.483-0.45 0.65 0 0.2 0.15 0.417 0.45 0.65s0.45 0.467 0.45 0.7c0 0.133-0.2 0.35-0.6 0.65-0.433 0.3-0.683 0.55-0.75 0.75 0 0.033 0.05 0.083 0.15 0.15s0.167 0.1 0.2 0.1c0.066-0.033 0.117-0.05 0.15-0.05 0.033-0.033 0.067-0.05 0.1-0.05 0.033-0.033 0.05-0.066 0.05-0.1s-0.033-0.083-0.1-0.15c-0.066-0.1-0.117-0.167-0.15-0.2 0.067-0.067 0.233-0.167 0.5-0.3 0.133-0.066 0.367-0.2 0.7-0.4 0.6-0.4 0.9-0.717 0.9-0.95 0-0.2-0.2-0.417-0.6-0.65-0.367-0.233-0.55-0.433-0.55-0.6 0-0.2 0.2-0.4 0.6-0.6 0.233-0.133 0.533-0.267 0.9-0.4h0.05c0.233-0.133 0.367-0.4 0.4-0.8 0.034-0.467 0.083-0.783 0.15-0.95 0-0.133 0.05-0.267 0.15-0.4l0.2-0.2c0.267-0.4 0.55-0.767 0.85-1.1 0.133-0.1 0.267-0.183 0.4-0.25 0.3-0.133 0.717-0.333 1.25-0.6 0.434-0.233 0.833-0.383 1.2-0.45 0.2-0.034 0.583 0.033 1.15 0.2 0.533 0.167 0.85 0.25 0.95 0.25 0.1-0.033 0.433-0.267 1-0.7-0.067 0-0.15-0.034-0.25-0.1l-0.15-0.15c-0.067 0-0.184 0.05-0.35 0.15l-0.3 0.2zm-10.925-0.95h-0.025c-0.067 0.066-0.133 0.167-0.2 0.3-0.333 0.467-0.583 0.75-0.75 0.85-0.2 0.133-0.367 0.267-0.5 0.4s-0.15 0.333-0.05 0.6c0.066 0.267-0.017 0.45-0.25 0.55-0.267 0.1-0.417 0.167-0.45 0.2-0.233 0.167-0.367 0.45-0.4 0.85-0.033 0.667-0.05 1.017-0.05 1.05-0.167 0.7-0.55 1.317-1.15 1.85-0.566 0.467-1.133 0.717-1.7 0.75h-0.55c-0.167 0.033-0.483 0.3-0.95 0.8-0.5 0.5-1.067 0.784-1.7 0.85-0.6 0.033-1-0.117-1.2-0.45 0.1 0.267 0.033 0.45-0.2 0.55-0.267 0.133-0.4 0.217-0.4 0.25 0.1-0.033 0.183-0.033 0.25 0 0-0.033 0.033-0.033 0.1 0l0.15 0.05c0.1 0.034 0.167 0.05 0.2 0.05 0.1 0 0.2-0.033 0.3-0.1s0.217-0.083 0.35-0.05c0.167 0 0.417 0.05 0.75 0.15 0.3 0.1 0.5 0.167 0.6 0.2 0.1 0 0.167-0.066 0.2-0.2 0-0.033-0.017-0.067-0.05-0.1-0.034-0.033-0.05-0.067-0.05-0.1 0.1 0 0.233 0.017 0.4 0.05 0.1 0 0.2-0.034 0.3-0.1 0.033-0.1 0.066-0.184 0.1-0.25 0.033-0.067 0.117-0.083 0.25-0.05 0.1 0 0.216 0.034 0.35 0.1 0.167 0.067 0.284 0.117 0.35 0.15h0.3v-0.2l-0.2-0.3c0-0.1 0.033-0.167 0.1-0.2 0.066-0.033 0.183-0.033 0.35 0-0.1-0.367 0.05-0.583 0.45-0.65 0.233-0.034 0.633-0.034 1.2 0-0.067-0.233-0.05-0.4 0.05-0.5 0.067-0.067 0.217-0.117 0.45-0.15 0.3-0.033 0.483-0.083 0.55-0.15 0.167-0.066 0.267-0.2 0.3-0.4 0.033-0.1 0.033-0.283 0-0.55 0-0.267 0.017-0.483 0.05-0.65 0.067-0.267 0.183-0.45 0.35-0.55s0.25-0.217 0.25-0.35c-0.033-0.1-0.083-0.25-0.15-0.45-0.1-0.233-0.15-0.367-0.15-0.4 0-0.233 0.1-0.433 0.3-0.6 0.133-0.067 0.35-0.167 0.65-0.3 0.167-0.066 0.267-0.267 0.3-0.6 0.067-0.367 0.1-0.617 0.1-0.75 0-0.1 0.117-0.333 0.35-0.7s0.35-0.583 0.35-0.65c0-0.04 8e-3 -0.073 0.025-0.1z" fill="#DF481B"/>
		<path d="m0.1-2.6v-0.15c1-0.6 2.034-1.15 3.1-1.65 0.667-0.833 1.383-1.6 2.15-2.3 0.3-0.267 0.6-0.533 0.9-0.8 0.2-0.167 0.4-0.333 0.6-0.5 0.333-0.333 0.716-0.583 1.15-0.75 0.466-0.2 0.95-0.367 1.45-0.5 0.233-0.033 0.45-0.066 0.65-0.1 0.367 0 0.75 0.066 1.15 0.2 0.233 0.067 0.45 0.033 0.65-0.1 0.033-0.033 0.083-0.066 0.15-0.1 0.3 0.034 0.583 0.15 0.85 0.35 0.3 0.167 0.6 0.217 0.9 0.15 0.1-0.033 0.166-0.083 0.2-0.15 0.1-0.3 0.3-0.466 0.6-0.5 0.1-0.033 0.2-0.05 0.3-0.05 0.2 0.033 0.4 0.017 0.6-0.05 0.133-0.034 0.267-0.067 0.4-0.1 0.066-0.067 0.15-0.1 0.25-0.1 0.033-0.033 0.083-0.033 0.15 0 0.467 0.133 0.883 0.1 1.25-0.1 0.4-0.233 0.683-0.55 0.85-0.95 0.066-0.133 0.117-0.284 0.15-0.45 0.067-0.233 0.217-0.35 0.45-0.35 0.233 0.033 0.466 0.05 0.7 0.05 0.2-0.034 0.383-0.117 0.55-0.25 0.733-0.5 1.233-1.233 1.5-2.2 0.033-0.2 0.066-0.383 0.1-0.55 0.133-0.7 0.467-1.3 1-1.8 0.434-0.4 0.833-0.816 1.2-1.25 0.133-0.133 0.233-0.267 0.3-0.4s0.167-0.267 0.3-0.4 0.25-0.267 0.35-0.4 0.183-0.233 0.25-0.3l0.1-0.1c0.034 0 0.067-0.017 0.1-0.05 0.1-0.1 0.2-0.183 0.3-0.25 0.1-0.033 0.183-0.083 0.25-0.15 0.4-0.233 0.833-0.467 1.3-0.7 0.167-0.1 0.367-0.183 0.6-0.25 0.4-0.066 0.816-0.117 1.25-0.15 0.433-0.067 0.867-0.15 1.3-0.25 0.233-0.033 0.45-0.083 0.65-0.15 0.1-0.033 0.2-0.067 0.3-0.1 0.133-0.033 0.3-0.1 0.5-0.2 0.9 0.267 1.867 0.434 2.9 0.5 0.167 0 0.317 0.017 0.45 0.05h0.3c0.933 0.1 1.8 0.35 2.6 0.75l-0.35-0.35c-0.2-0.233-0.567-0.367-1.1-0.4-0.667-0.033-1.05-0.067-1.15-0.1-0.967-0.4-1.75-0.667-2.35-0.8-0.667-0.133-1.433-0.2-2.3-0.2-0.2 0-0.567 0.15-1.1 0.45s-1.267 0.45-2.2 0.45c-0.633 0-1.216 0.15-1.75 0.45-0.4 0.233-0.816 0.566-1.25 1-0.333 0.3-0.633 0.8-0.9 1.5-0.233 0.5-0.583 0.867-1.05 1.1-0.233 0.133-0.45 0.566-0.65 1.3-0.034 0.067-0.184 0.233-0.45 0.5-0.2 0.233-0.3 0.417-0.3 0.55 0 0.4-0.167 0.717-0.5 0.95s-0.5 0.433-0.5 0.6c0 0.066 0.033 0.15 0.1 0.25 0.1 0.066 0.15 0.117 0.15 0.15l-0.15 0.25c-0.133 0.2-0.233 0.333-0.3 0.4h-0.85l-0.1-0.3c-0.033-0.1-0.133-0.15-0.3-0.15-0.367 0-0.55 0.167-0.55 0.5 0 0.566-0.05 0.95-0.15 1.15-0.2 0.2-0.4 0.467-0.6 0.8-0.2 0.267-0.434 0.4-0.7 0.4-0.2 0-0.4-0.1-0.6-0.3s-0.333-0.3-0.4-0.3-0.15 0.083-0.25 0.25c-0.1 0.133-0.2 0.2-0.3 0.2-0.067 0-0.2-0.033-0.4-0.1-0.2-0.066-0.367-0.1-0.5-0.1-0.433 0-0.65 0.117-0.65 0.35-0.033 0.267-0.167 0.4-0.4 0.4-0.2 0-0.367-0.117-0.5-0.35s-0.3-0.35-0.5-0.35c-0.067 0-0.183 0.083-0.35 0.25-0.133 0.2-0.233 0.3-0.3 0.3-0.1 0-0.267-0.066-0.5-0.2-0.267-0.133-0.45-0.2-0.55-0.2-0.9 0-2.017 0.4-3.35 1.2-1.133 0.7-1.95 1.35-2.45 1.95s-1.45 1.434-2.85 2.5l-1.95 1.45c0 0.067 0.017 0.117 0.05 0.15 0 0.033 0.016 0.05 0.05 0.05z" fill="#861905"/>
		<path d="m0.8-1.85c0.267 0.133 0.533 0.233 0.8 0.3 0.1-0.3 0.333-0.467 0.7-0.5 0.167 0 0.433 0.033 0.8 0.1 0.233-0.033 0.55-0.083 0.95-0.15 0.333-0.067 0.6-0.1 0.8-0.1 0.034 0 0.1 0.017 0.2 0.05h1c0.367-0.033 0.683-0.117 0.95-0.25 0.333-0.1 0.566-0.217 0.7-0.35 0.067-0.066 0.167-0.216 0.3-0.45 0.1-0.167 0.233-0.283 0.4-0.35 0.1-0.033 0.25-0.067 0.45-0.1 0.167-0.066 0.333-0.167 0.5-0.3 0.267-0.2 0.517-0.434 0.75-0.7 0.2-0.2 0.517-0.367 0.95-0.5 0.033-0.033 0.333-0.167 0.9-0.4 0.467-0.233 0.733-0.35 0.8-0.35 0.066 0 0.45 0.067 1.15 0.2 0.066 0 0.367-0.067 0.9-0.2s0.933-0.2 1.2-0.2c0.1 0.033 0.45 0.066 1.05 0.1 0.4 0 0.717-0.05 0.95-0.15 0.167-0.1 0.367-0.233 0.6-0.4 0.233-0.2 0.417-0.333 0.55-0.4 0.3-0.133 0.633-0.2 1-0.2h0.8c0.367 0.033 0.633 0.033 0.8 0 0.533-0.033 1.033-0.133 1.5-0.3 0.1-0.067 0.233-0.133 0.4-0.2 0.133-0.066 0.25-0.1 0.35-0.1 0.167-0.033 0.316-0.033 0.45 0 0.133 0.034 0.3 0.034 0.5 0 0.333 0 0.65-0.1 0.95-0.3 0.267-0.167 0.467-0.383 0.6-0.65 0.033-0.033 0.233-0.2 0.6-0.5 0.3-0.267 0.45-0.5 0.45-0.7 0-0.1-0.117-0.283-0.35-0.55-0.267-0.3-0.4-0.567-0.4-0.8 0-0.133 0.05-0.25 0.15-0.35 0.033-0.067 0.133-0.15 0.3-0.25 0.3-0.267 0.45-0.717 0.45-1.35 0-0.333 0.233-0.617 0.7-0.85 0.133-0.067 0.333-0.167 0.6-0.3 0.233-0.133 0.4-0.25 0.5-0.35 0.133-0.133 0.283-0.35 0.45-0.65 0.1-0.167 0.217-0.35 0.35-0.55 0.3-0.6 0.617-1.017 0.95-1.25 0.5-0.433 1.216-0.75 2.15-0.95 0.167-0.034 0.333-0.15 0.5-0.35-0.067 0.033-0.133 0.05-0.2 0.05-0.167 0.033-0.417 0.033-0.75 0-0.367-0.033-0.617-0.033-0.75 0-0.767 0.167-1.45 0.483-2.05 0.95 0.1-0.1 0.2-0.217 0.3-0.35 0.3-0.333 0.45-0.667 0.45-1-0.033-0.333-0.217-0.567-0.55-0.7-0.1-0.033-0.216-0.05-0.35-0.05-0.434-0.067-0.833-0.05-1.2 0.05-0.3 0.1-0.85 0.25-1.65 0.45s-1.3 0.483-1.5 0.85c-0.233 0.367-0.35 0.9-0.35 1.6s-0.017 1.083-0.05 1.15c-0.067 0.167-0.267 0.417-0.6 0.75-0.233 0.2-0.333 0.467-0.3 0.8 0 0.067 0.083 0.217 0.25 0.45 0.167 0.267 0.267 0.433 0.3 0.5-0.033 0.066-0.2 0.417-0.5 1.05-0.367 0.567-0.583 0.9-0.65 1-0.267 0.3-0.6 0.517-1 0.65-0.4 0.1-0.617 0.184-0.65 0.25-0.066 0.1-0.133 0.317-0.2 0.65-0.033 0.233-0.1 0.4-0.2 0.5-0.234 0.233-0.467 0.384-0.7 0.45-0.2 0.067-0.517 0.117-0.95 0.15-0.2 0-0.383-0.033-0.55-0.1-0.2-0.067-0.367-0.1-0.5-0.1-0.067 0-0.184 0.066-0.35 0.2-0.233 0.1-0.5 0.15-0.8 0.15-0.333 0-0.583-0.05-0.75-0.15s-0.333-0.15-0.5-0.15l-0.25-0.05c-0.066 0.033-0.117 0.117-0.15 0.25 0 0.1 0.05 0.2 0.15 0.3 0.1 0.067 0.133 0.167 0.1 0.3-0.2 0.033-0.5 0.066-0.9 0.1-0.433 0.067-0.75 0.083-0.95 0.05-0.033 0-0.35-0.083-0.95-0.25-0.567-0.167-1.033-0.267-1.4-0.3-0.167-0.033-0.35-0.05-0.55-0.05-0.3 0-0.467 0.067-0.5 0.2-0.033 0.1-0.066 0.316-0.1 0.65-0.633-0.1-1.216-0.05-1.75 0.15-0.567 0.234-0.983 0.667-1.25 1.3-0.034 0.067-0.067 0.2-0.1 0.4 0 0.167-0.034 0.284-0.1 0.35-0.1 0.333-0.367 0.65-0.8 0.95-0.3 0.234-0.7 0.484-1.2 0.75-0.4 0.2-0.783 0.367-1.15 0.5-0.4 0.1-0.75 0.133-1.05 0.1-0.533-0.033-1.05 0-1.55 0.1-0.767 0.1-1.2 0.333-1.3 0.7-0.034 0-0.05 0.017-0.05 0.05z" fill="#C24B29"/>
		<path d="m6.1-0.15c0.264-0.016 0.631-0.149 1.1-0.4 0.167-0.1 0.333-0.183 0.5-0.25 0.266-0.2 0.433-0.383 0.5-0.55 0.033-0.067 0.05-0.15 0.05-0.25 0.033-0.133 0.05-0.216 0.05-0.25 0.133-0.267 0.4-0.517 0.8-0.75 0.233-0.133 0.583-0.3 1.05-0.5 0.3-0.167 0.6-0.417 0.9-0.75s0.6-0.6 0.9-0.8c0.434-0.3 1.1-0.433 2-0.4 0.267 0 0.633 0.017 1.1 0.05 0.433 0 0.767-0.033 1-0.1v-0.05c-0.367-0.033-0.817-0.066-1.35-0.1-0.433-0.033-0.967-0.066-1.6-0.1-0.5-0.067-0.983 0.017-1.45 0.25-0.434 0.233-0.867 0.6-1.3 1.1-0.267 0.3-0.466 0.517-0.6 0.65-0.267 0.233-0.517 0.367-0.75 0.4-0.1 0-0.3 0.1-0.6 0.3-0.333 0.233-0.55 0.434-0.65 0.6-0.034 0.067-0.05 0.217-0.05 0.45v0.35c-0.033 0.133-0.167 0.233-0.4 0.3-0.267 0.067-0.433 0.117-0.5 0.15-0.1 0-0.233 0.083-0.4 0.25-0.2 0.133-0.3 0.217-0.3 0.25-0.067 0.033-0.134 0.067-0.2 0.1 0.033 0 0.083 0.017 0.15 0.05h0.05z" fill="#FF8A4E"/>
		<path d="m28.8-19.5c0.333-0.2 0.567-0.316 0.7-0.35h0.3c0.133-0.034 0.233-0.05 0.3-0.05 0.067-0.033 0.167-0.083 0.3-0.15 0.066-0.033 0.133-0.067 0.2-0.1-0.066 0-0.133-0.017-0.2-0.05-0.667 0-1.167 0.05-1.5 0.15-0.167 0.033-0.434 0.15-0.8 0.35l-0.55 0.25c-0.9 0.233-1.517 0.517-1.85 0.85-0.066 0.1-0.15 0.216-0.25 0.35 0 0.027-8e-3 0.043-0.025 0.05-0.017 0.026-0.025 0.06-0.025 0.1 0 0.066-0.117 0.283-0.35 0.65s-0.35 0.6-0.35 0.7c0 0.133-0.033 0.383-0.1 0.75-0.033 0.333-0.133 0.534-0.3 0.6-0.3 0.133-0.517 0.233-0.65 0.3-0.2 0.167-0.3 0.367-0.3 0.6 0 0.034 0.05 0.167 0.15 0.4 0.066 0.2 0.117 0.35 0.15 0.45 0 0.133-0.083 0.25-0.25 0.35s-0.283 0.283-0.35 0.55c-0.033 0.167-0.05 0.383-0.05 0.65 0.033 0.267 0.033 0.45 0 0.55-0.034 0.2-0.133 0.333-0.3 0.4-0.066 0.067-0.25 0.117-0.55 0.15-0.233 0.034-0.383 0.083-0.45 0.15-0.1 0.1-0.117 0.267-0.05 0.5-0.567-0.034-0.967-0.034-1.2 0-0.4 0.066-0.55 0.283-0.45 0.65-0.167-0.033-0.284-0.033-0.35 0-0.067 0.033-0.1 0.1-0.1 0.2l0.2 0.3v0.2h-0.3c-0.066-0.033-0.183-0.083-0.35-0.15-0.133-0.066-0.25-0.1-0.35-0.1-0.133-0.033-0.217-0.017-0.25 0.05-0.034 0.066-0.067 0.15-0.1 0.25-0.1 0.066-0.2 0.1-0.3 0.1-0.167-0.034-0.3-0.05-0.4-0.05 0 0.033 0.017 0.067 0.05 0.1s0.05 0.067 0.05 0.1c-0.033 0.133-0.1 0.2-0.2 0.2-0.1-0.033-0.3-0.1-0.6-0.2-0.333-0.1-0.583-0.15-0.75-0.15-0.133-0.033-0.25-0.017-0.35 0.05s-0.2 0.1-0.3 0.1c-0.033 0-0.1-0.017-0.2-0.05l-0.15-0.05c-0.067-0.033-0.1-0.033-0.1 0-0.067-0.033-0.15-0.033-0.25 0-0.033 0.033-0.067 0.1-0.1 0.2-0.033 0.167-0.117 0.267-0.25 0.3-0.2 0.1-0.517 0.117-0.95 0.05-0.167-0.033-0.417-0.1-0.75-0.2-0.3-0.1-0.5-0.167-0.6-0.2-0.067 0-0.15 0.033-0.25 0.1s-0.217 0.083-0.35 0.05c-0.033 0-0.1-0.017-0.2-0.05s-0.167-0.067-0.2-0.1c-0.9-0.133-1.9 0.033-3 0.5-1.067 0.5-1.934 1.133-2.6 1.9-0.567 0.633-1 1.117-1.3 1.45-0.533 0.6-1 1.033-1.4 1.3-0.1 0.067-0.3 0.15-0.6 0.25-0.5 0.167-0.783 0.267-0.85 0.3-0.667 0.267-1.083 0.533-1.25 0.8 0.133 0.1 0.283 0.2 0.45 0.3h0.1c0-0.034 0.017-0.05 0.05-0.05 0.1-0.367 0.534-0.6 1.3-0.7 0.5-0.1 1.017-0.133 1.55-0.1 0.3 0.033 0.65 0 1.05-0.1 0.367-0.133 0.75-0.3 1.15-0.5 0.5-0.267 0.9-0.517 1.2-0.75 0.433-0.3 0.7-0.617 0.8-0.95 0.066-0.066 0.1-0.183 0.1-0.35 0.033-0.2 0.066-0.333 0.1-0.4 0.267-0.633 0.684-1.066 1.25-1.3 0.534-0.2 1.117-0.25 1.75-0.15 0.034-0.333 0.067-0.55 0.1-0.65 0.033-0.133 0.2-0.2 0.5-0.2 0.2 0 0.383 0.017 0.55 0.05 0.367 0.034 0.833 0.133 1.4 0.3 0.6 0.167 0.917 0.25 0.95 0.25 0.2 0.033 0.517 0.017 0.95-0.05 0.4-0.033 0.7-0.066 0.9-0.1 0.033-0.133 0-0.233-0.1-0.3-0.1-0.1-0.15-0.2-0.15-0.3 0.033-0.133 0.083-0.217 0.15-0.25l0.25 0.05c0.167 0 0.333 0.05 0.5 0.15s0.417 0.15 0.75 0.15c0.3 0 0.567-0.05 0.8-0.15 0.167-0.133 0.283-0.2 0.35-0.2 0.133 0 0.3 0.033 0.5 0.1 0.167 0.066 0.35 0.1 0.55 0.1 0.433-0.033 0.75-0.083 0.95-0.15 0.233-0.066 0.466-0.217 0.7-0.45 0.1-0.1 0.167-0.267 0.2-0.5 0.066-0.333 0.133-0.55 0.2-0.65 0.034-0.066 0.25-0.15 0.65-0.25 0.4-0.133 0.733-0.35 1-0.65 0.066-0.1 0.283-0.433 0.65-1 0.3-0.633 0.467-0.983 0.5-1.05-0.033-0.067-0.133-0.233-0.3-0.5-0.167-0.233-0.25-0.383-0.25-0.45-0.033-0.333 0.067-0.6 0.3-0.8 0.333-0.333 0.533-0.583 0.6-0.75 0.033-0.067 0.05-0.45 0.05-1.15s0.117-1.233 0.35-1.6c0.2-0.367 0.7-0.65 1.5-0.85s1.35-0.35 1.65-0.45z" fill="#AC0A00"/>
		<path d="m30.6-20.15h0.5c0.133 0 0.4-0.117 0.8-0.35 0.167-0.167 0.25-0.333 0.25-0.5 0-0.2-0.083-0.367-0.25-0.5-0.2 0.1-0.367 0.167-0.5 0.2-0.1 0.033-0.2 0.067-0.3 0.1-0.2 0.066-0.417 0.117-0.65 0.15-0.433 0.1-0.867 0.183-1.3 0.25-0.434 0.033-0.85 0.083-1.25 0.15-0.233 0.067-0.434 0.15-0.6 0.25-0.467 0.233-0.9 0.467-1.3 0.7-0.067 0.066-0.15 0.117-0.25 0.15-0.1 0.067-0.2 0.15-0.3 0.25-0.033 0.033-0.066 0.05-0.1 0.05-0.033 0.034-0.066 0.067-0.1 0.1-0.067 0.067-0.15 0.167-0.25 0.3s-0.217 0.267-0.35 0.4-0.233 0.267-0.3 0.4c-0.066 0.133-0.167 0.267-0.3 0.4-0.367 0.434-0.767 0.85-1.2 1.25-0.533 0.5-0.867 1.1-1 1.8-0.033 0.167-0.066 0.35-0.1 0.55-0.267 0.967-0.767 1.7-1.5 2.2-0.167 0.133-0.35 0.216-0.55 0.25-0.233 0-0.467-0.017-0.7-0.05-0.233 0-0.383 0.117-0.45 0.35-0.033 0.167-0.083 0.317-0.15 0.45-0.167 0.4-0.45 0.716-0.85 0.95-0.367 0.2-0.783 0.233-1.25 0.1-0.067-0.033-0.117-0.033-0.15 0-0.1 0-0.184 0.033-0.25 0.1-0.133 0.033-0.267 0.066-0.4 0.1-0.2 0.066-0.4 0.083-0.6 0.05-0.1 0-0.2 0.017-0.3 0.05-0.3 0.034-0.5 0.2-0.6 0.5-0.034 0.067-0.1 0.117-0.2 0.15-0.3 0.067-0.6 0.017-0.9-0.15-0.267-0.2-0.55-0.316-0.85-0.35-0.067 0.033-0.117 0.066-0.15 0.1-0.2 0.133-0.417 0.167-0.65 0.1-0.4-0.133-0.784-0.2-1.15-0.2-0.2 0.033-0.417 0.066-0.65 0.1-0.5 0.133-0.984 0.3-1.45 0.5-0.434 0.167-0.817 0.417-1.15 0.75-0.2 0.167-0.4 0.333-0.6 0.5-0.3 0.267-0.6 0.534-0.9 0.8-0.767 0.7-1.483 1.467-2.15 2.3-1.067 0.5-2.1 1.05-3.1 1.65v0.15c-0.034 0.167 0.017 0.317 0.15 0.45 0.167-0.267 0.583-0.533 1.25-0.8 0.066-0.033 0.35-0.133 0.85-0.3 0.3-0.1 0.5-0.183 0.6-0.25 0.4-0.267 0.867-0.7 1.4-1.3 0.3-0.333 0.733-0.817 1.3-1.45 0.667-0.767 1.533-1.4 2.6-1.9 1.1-0.467 2.1-0.633 3-0.5 0.033 0.033 0.1 0.067 0.2 0.1s0.167 0.05 0.2 0.05c0.133 0.034 0.25 0.017 0.35-0.05s0.183-0.1 0.25-0.1c0.1 0.033 0.3 0.1 0.6 0.2 0.333 0.1 0.583 0.167 0.75 0.2 0.434 0.067 0.75 0.05 0.95-0.05 0.133-0.033 0.217-0.133 0.25-0.3 0.033-0.1 0.067-0.167 0.1-0.2 0-0.033 0.133-0.117 0.4-0.25 0.233-0.1 0.3-0.283 0.2-0.55 0.2 0.333 0.6 0.483 1.2 0.45 0.633-0.066 1.2-0.35 1.7-0.85 0.467-0.5 0.783-0.767 0.95-0.8h0.55c0.566-0.033 1.133-0.283 1.7-0.75 0.6-0.533 0.983-1.15 1.15-1.85 0-0.033 0.017-0.383 0.05-1.05 0.033-0.4 0.167-0.684 0.4-0.85 0.033-0.033 0.184-0.1 0.45-0.2 0.233-0.1 0.316-0.283 0.25-0.55-0.1-0.267-0.083-0.467 0.05-0.6s0.3-0.267 0.5-0.4c0.167-0.1 0.417-0.383 0.75-0.85 0.067-0.133 0.133-0.233 0.2-0.3h0.025c0.017-7e-3 0.025-0.023 0.025-0.05 0.1-0.133 0.184-0.25 0.25-0.35 0.333-0.333 0.95-0.617 1.85-0.85l0.55-0.25c0.367-0.2 0.633-0.317 0.8-0.35 0.333-0.1 0.833-0.15 1.5-0.15 0.066 0.033 0.133 0.05 0.2 0.05z" fill="#DF5956"/>
		<path d="m2.15-1.4c-0.033-0.066-0.033-0.133 0-0.2 0-0.067 0.05-0.117 0.15-0.15 0.067-0.066 0.15-0.1 0.25-0.1l0.3 0.1c0.167 0.034 0.284 0.067 0.35 0.1 0.233 0 0.567-0.066 1-0.2 0.3-0.1 0.567-0.15 0.8-0.15l-0.05-0.05c0.067-0.033 0.133-0.05 0.2-0.05-0.032-0.033-0.066-0.049-0.1-0.05-0.1-0.033-0.167-0.05-0.2-0.05-0.2 0-0.466 0.033-0.8 0.1-0.4 0.067-0.717 0.117-0.95 0.15-0.367-0.067-0.633-0.1-0.8-0.1-0.367 0.033-0.6 0.2-0.7 0.5 0.2 0.067 0.383 0.117 0.55 0.15z" fill="#D34F42"/>
	</g>
</symbol>
<use transform="matrix(1 0 0 -1 3.1001 4.25)" y="-22.05" width="39.413" height="22.06" xlink:href="#a"/>
</svg>
