<?xml version="1.0" encoding="UTF-8"?>
<svg version="1.1" viewBox="0 0 245.08 240.72" xmlns="http://www.w3.org/2000/svg">
 <g transform="translate(-218.62 -218.19)">
  <g transform="matrix(1.943 0 0 1.943 -321.72 -319.37)">
   <path transform="translate(-.23903 -.95612)" d="m392.13 355.67c0.97295 0.81214 0.40181 2.7072-1.4004 2.8913-1.994 0.20359-3.1996-1.5833-2.7182-3.4879 0.52235-2.0666 2.344-2.987 4.4532-2.5452 2.4669 0.51669 3.6021 3.5012 2.8038 5.8501-0.89406 2.6309-3.8816 3.9583-6.4702 3.0624-0.88206-0.30528-1.6759-0.84555-2.2887-1.5492" fill="none" stroke="#ef74ab" stroke-width="1.5"/>
   <path d="m366.68 376.96h12.068s3.4218 10.63 0 12.888c-1.9453 1.284-3.8494-3.2934-6.1361-3.2767-2.226 0.0164-4.03 4.5127-5.9316 3.2767-3.4362-2.2335 0-12.888 0-12.888z" fill="#fecae0" stroke="#fac8dc" stroke-width=".88432"/>
   <path d="m330.68 378.96h12.068s3.4218 10.63 0 12.888c-1.9453 1.284-3.8494-3.2934-6.1361-3.2767-2.226 0.0164-4.03 4.5127-5.9316 3.2767-3.4362-2.2335 0-12.888 0-12.888z" fill="#fecae0" stroke="#fac8dc" stroke-width=".88432"/>
   <path transform="matrix(2.0537 0 0 2.2742 -351.64 -436.11)" d="m359.02 349.49c0 6.5346-7.1167 11.832-15.896 11.832-8.7789 0-15.896-5.2974-15.896-11.832s7.1167-11.832 15.896-11.832c8.7788 0 15.896 5.2974 15.896 11.832z" fill="#f27cac" stroke="#f27cac"/>
   <path d="m336.79 306.59s-1.1952-13.386 20.079-21.274c0 0 18.166 21.274 0.71709 35.855z" fill="#e878aa" stroke="#fac8dc" stroke-width="1px"/>
   <path d="m315.15 308.59s1.1952-13.386-20.079-21.274c0 0-18.166 21.274-0.71709 35.855z" fill="#e878aa" stroke="#fec9e0" stroke-width="1px"/>
   <path transform="matrix(1.913 0 0 1.9504 -265.57 -293.78)" d="m327.47 323.2c0 9.1749-8.2939 16.613-18.525 16.613s-18.525-7.4377-18.525-16.613c0-9.1749 8.2939-16.613 18.525-16.613s18.525 7.4377 18.525 16.613z" fill="#fecae0" stroke="#f7c6db"/>
   <path transform="matrix(1.3841 0 0 1.0573 -102.29 3.1044)" d="m327.47 323.2c0 9.1749-8.2939 16.613-18.525 16.613s-18.525-7.4377-18.525-16.613c0-9.1749 8.2939-16.613 18.525-16.613s18.525 7.4377 18.525 16.613z" fill="#ee78a8" stroke="#fcbad9"/>
   <g transform="translate(-.63442)">
    <path transform="matrix(.10497 0 0 .11705 288.64 283.25)" d="m327.47 323.2c0 9.1749-8.2939 16.613-18.525 16.613s-18.525-7.4377-18.525-16.613c0-9.1749 8.2939-16.613 18.525-16.613s18.525 7.4377 18.525 16.613z" stroke="#000"/>
    <path transform="matrix(.10497 0 0 .11705 298.64 283.25)" d="m327.47 323.2c0 9.1749-8.2939 16.613-18.525 16.613s-18.525-7.4377-18.525-16.613c0-9.1749 8.2939-16.613 18.525-16.613s18.525 7.4377 18.525 16.613z" stroke="#000"/>
    <path transform="matrix(.053337 0 0 .059477 305.43 301.86)" d="m327.47 323.2c0 9.1749-8.2939 16.613-18.525 16.613s-18.525-7.4377-18.525-16.613c0-9.1749 8.2939-16.613 18.525-16.613s18.525 7.4377 18.525 16.613z" fill="#fff" stroke="#fff"/>
    <path transform="matrix(.053337 0 0 .059477 313.76 301.86)" d="m327.47 323.2c0 9.1749-8.2939 16.613-18.525 16.613s-18.525-7.4377-18.525-16.613c0-9.1749 8.2939-16.613 18.525-16.613s18.525 7.4377 18.525 16.613z" fill="#fff" stroke="#fff"/>
   </g>
   <path d="m336.21 357.03s3.2296 0.75775 2.7554-3.2308" fill="none" stroke="#000" stroke-width="1px"/>
   <g transform="translate(-.46759)" stroke="#000" stroke-width=".27496">
    <path d="m322.22 344.29c-1.8028 1.8724-6.8487 0.62227-7.5688-1.8752-0.72016-2.4974 2.8854-6.2422 5.4084-5.6172 2.5229 0.62504 3.9632 5.62 2.1604 7.4924z"/>
    <path d="m329.36 344.29c1.8028 1.8724 6.8487 0.62227 7.5688-1.8752 0.72016-2.4974-2.8854-6.2422-5.4084-5.6172-2.5229 0.62504-3.9632 5.62-2.1604 7.4924z"/>
   </g>
  </g>
 </g>
</svg>
